<svg width="1085" height="1080" xmlns="http://www.w3.org/2000/svg" xmlns:xlink="http://www.w3.org/1999/xlink" xml:space="preserve" overflow="hidden"><defs><clipPath id="clip0"><rect x="2388" y="1062" width="1085" height="1080"/></clipPath></defs><g clip-path="url(#clip0)" transform="translate(-2388 -1062)"><path d="M2402.92 1276C2404.57 1276.2 2406.27 1276.4 2408 1276.63 2402.71 1279.8 2397.43 1282.9 2392.18 1286L2392.15 1286C2390.77 1285.57 2389.38 1285.18 2388 1284.81 2392.98 1281.91 2397.94 1278.97 2402.92 1276" fill="#606060" fill-rule="evenodd"/><path d="M2440 1256C2429.93 1262.82 2419.92 1269.46 2410 1276 2408.3 1275.75 2406.63 1275.54 2405 1275.32 2413.81 1269.61 2422.62 1263.75 2431.53 1257.75L2440 1256Z" fill="#606060" fill-rule="evenodd"/><path d="M2449.08 1283 2454 1283.73C2445.97 1288.56 2437.98 1293.33 2430.06 1298L2430.03 1298C2428.66 1297.54 2427.37 1297.11 2426 1296.71 2433.65 1292.21 2441.37 1287.64 2449.08 1283" fill="#606060" fill-rule="evenodd"/><path d="M2520 1241C2498.41 1255.29 2477.11 1268.9 2456.03 1282L2456 1282 2451 1281.28C2471 1268.94 2491.21 1256.05 2511.7 1242.61L2511.73 1242.61 2520 1241Z" fill="#606060" fill-rule="evenodd"/><path d="M2493.29 1290C2494.84 1290.27 2496.43 1290.54 2498 1290.84 2487.26 1297.39 2476.61 1303.76 2465.99 1310 2464.64 1309.53 2463.33 1309.09 2462 1308.65 2472.36 1302.58 2482.78 1296.37 2493.25 1290L2493.29 1290Z" fill="#606060" fill-rule="evenodd"/><path d="M2598 1225C2588.1 1231.95 2578.19 1238.75 2568.3 1245.46 2545.87 1260.66 2523.71 1275.18 2501.83 1289 2500.23 1288.76 2498.6 1288.48 2497 1288.24 2519.87 1273.8 2543.04 1258.62 2566.49 1242.73 2574.33 1237.41 2582.15 1232.05 2589.97 1226.62L2590.02 1226.59 2590.05 1226.59 2598 1225Z" fill="#606060" fill-rule="evenodd"/><path d="M2537.31 1298C2538.88 1298.31 2540.43 1298.62 2542 1298.96 2528.55 1307.19 2515.22 1315.22 2501.98 1323 2500.67 1322.52 2499.36 1322 2498 1321.56 2510.98 1313.95 2524.09 1306.09 2537.28 1298L2537.31 1298Z" fill="#606060" fill-rule="evenodd"/><path d="M2676 1210C2647.77 1229.94 2619.62 1249.09 2591.49 1267.46 2576.47 1277.26 2561.58 1286.75 2546.8 1296L2546.77 1296C2545.16 1295.73 2543.56 1295.45 2542 1295.15 2557.76 1285.31 2573.66 1275.21 2589.71 1264.73 2615.81 1247.69 2641.96 1229.94 2668.14 1211.54L2676 1210Z" fill="#606060" fill-rule="evenodd"/><path d="M2579.39 1307C2580.92 1307.35 2582.47 1307.69 2584 1308.04 2568.15 1318.02 2552.43 1327.65 2536.87 1337 2535.56 1336.44 2534.31 1335.89 2533 1335.4 2548.34 1326.26 2563.81 1316.8 2579.39 1307" fill="#606060" fill-rule="evenodd"/><path d="M2753 1195C2706.63 1228.55 2660.42 1259.96 2614.28 1289.29 2606.45 1294.26 2598.65 1299.16 2590.85 1304L2590.82 1304C2589.19 1303.66 2587.61 1303.39 2586 1303.08 2594.8 1297.66 2603.61 1292.15 2612.51 1286.49 2656.7 1258.42 2700.88 1228.48 2745.27 1196.53L2745.3 1196.53 2753 1195Z" fill="#606060" fill-rule="evenodd"/><path d="M2626 1318.1C2607.44 1329.5 2589.02 1340.45 2570.79 1351 2569.52 1350.42 2568.27 1349.84 2567 1349.32 2584.99 1338.98 2603.17 1328.2 2621.46 1317L2621.49 1317C2622.97 1317.34 2624.49 1317.72 2626 1318.1" fill="#606060" fill-rule="evenodd"/><path d="M2830 1180C2765.51 1227.88 2701.39 1271.58 2637.34 1311.4 2636.48 1311.94 2635.6 1312.49 2634.73 1313 2633.15 1312.66 2631.58 1312.35 2630 1312.04 2631.85 1310.92 2633.73 1309.75 2635.6 1308.59 2697.72 1269.98 2759.88 1227.71 2822.43 1181.5L2822.46 1181.5 2830 1180Z" fill="#606060" fill-rule="evenodd"/><path d="M2662.61 1328C2664.08 1328.41 2665.55 1328.81 2667 1329.19 2665.06 1330.4 2663.08 1331.59 2661.14 1332.77 2642.16 1344.29 2623.35 1355.36 2604.69 1366L2604.65 1366C2603.43 1365.46 2602.23 1364.88 2601 1364.31 2620.3 1353.3 2639.74 1341.89 2659.41 1329.96 2660.46 1329.32 2661.56 1328.68 2662.61 1328" fill="#606060" fill-rule="evenodd"/><path d="M2906 1165C2829.75 1223 2754.2 1275.2 2678.69 1322 2677.13 1321.66 2675.58 1321.35 2674 1321.01 2748.58 1274.89 2823.24 1223.55 2898.55 1166.47L2898.58 1166.47 2906 1165Z" fill="#606060" fill-rule="evenodd"/><path d="M2702.66 1339C2704.1 1339.41 2705.57 1339.86 2707 1340.31 2699.39 1344.98 2691.81 1349.58 2684.23 1354.15 2668.25 1363.73 2652.33 1373.04 2636.58 1382 2635.39 1381.35 2634.19 1380.73 2633 1380.21 2649.4 1370.91 2665.88 1361.26 2682.52 1351.26 2689.25 1347.24 2695.94 1343.16 2702.66 1339" fill="#606060" fill-rule="evenodd"/><path d="M2981 1150C2893.85 1218.09 2807.64 1278.54 2721.65 1332 2720.11 1331.66 2718.55 1331.28 2717 1330.94 2802.14 1278.16 2887.43 1218.53 2973.7 1151.44L2981 1150Z" fill="#606060" fill-rule="evenodd"/><path d="M2742.76 1351C2744.16 1351.44 2745.57 1351.88 2747 1352.33 2734.02 1360.22 2721.01 1367.95 2708.04 1375.5 2694.79 1383.23 2681.64 1390.72 2668.52 1398 2667.36 1397.35 2666.16 1396.71 2665 1396.13 2678.71 1388.51 2692.47 1380.68 2706.33 1372.61 2718.49 1365.53 2730.6 1358.35 2742.76 1351" fill="#606060" fill-rule="evenodd"/><path d="M3056 1135C2957.9 1213.33 2861.14 1282.03 2764.57 1342 2763.03 1341.62 2761.53 1341.25 2760 1340.87 2855.69 1281.59 2951.62 1213.74 3048.81 1136.44L3056 1135Z" fill="#606060" fill-rule="evenodd"/><path d="M2781.8 1364C2783.16 1364.44 2784.59 1364.88 2786 1365.35 2767.7 1376.23 2749.39 1386.78 2731.08 1397.05 2720.13 1403.17 2709.24 1409.15 2698.41 1415 2697.28 1414.32 2696.14 1413.68 2695 1413.07 2706.42 1406.89 2717.85 1400.6 2729.4 1394.15 2746.87 1384.38 2764.32 1374.31 2781.8 1364" fill="#606060" fill-rule="evenodd"/><path d="M3131 1121C3021.54 1209.4 2913.9 1285.99 2806.51 1352 2805 1351.59 2803.5 1351.22 2802 1350.84 2908.56 1285.52 3015.38 1209.74 3123.93 1122.36L3123.96 1122.36 3131 1121Z" fill="#606060" fill-rule="evenodd"/><path d="M2819.85 1377C2821.22 1377.48 2822.6 1377.99 2824 1378.47 2800.85 1392.34 2777.69 1405.7 2754.56 1418.62 2745.78 1423.5 2737.03 1428.32 2728.31 1433 2727.22 1432.32 2726.09 1431.63 2725 1430.99 2734.25 1426 2743.54 1420.87 2752.9 1415.68 2775.23 1403.24 2797.52 1390.36 2819.85 1377" fill="#606060" fill-rule="evenodd"/><path d="M3205 1106C3084.12 1205.78 2965.62 1291.27 2847.44 1364L2847.41 1364C2845.93 1363.56 2844.43 1363.15 2843 1362.73 2960.31 1290.73 3078.05 1206.06 3197.99 1107.37L3198.02 1107.37 3205 1106Z" fill="#606060" fill-rule="evenodd"/><path d="M2856.98 1391C2858.3 1391.51 2859.64 1392.02 2861 1392.53 2833.34 1408.98 2805.72 1424.71 2778.07 1439.81 2771.12 1443.61 2764.18 1447.34 2757.26 1451 2756.18 1450.29 2755.08 1449.58 2754 1448.93 2761.46 1444.96 2768.94 1440.96 2776.44 1436.86 2803.28 1422.2 2830.11 1406.94 2856.98 1391" fill="#606060" fill-rule="evenodd"/><path d="M3279 1091C3147.04 1201.96 3017.97 1296.04 2889.37 1375L2889.34 1375C2887.87 1374.56 2886.43 1374.15 2885 1373.74 3012.78 1295.42 3141.04 1202.2 3272.14 1092.33L3272.17 1092.33 3279 1091Z" fill="#606060" fill-rule="evenodd"/><path d="M2894.15 1405C2895.42 1405.48 2896.71 1405.99 2898 1406.51 2865.86 1425.69 2833.72 1443.89 2801.55 1461.19 2796.02 1464.17 2790.5 1467.12 2785 1470 2784.01 1469.28 2783.03 1468.6 2782 1467.91 2818.82 1448.48 2856.2 1427.58 2894.15 1405" fill="#606060" fill-rule="evenodd"/><path d="M3353 1077C3209.15 1199.7 3068.88 1302.63 2929.2 1388 2927.8 1387.55 2926.4 1387.15 2925 1386.7 3057.75 1305.71 3197.59 1204.73 3346.3 1078.3L3346.33 1078.3 3353 1077Z" fill="#606060" fill-rule="evenodd"/><path d="M2929.99 1419C2931.35 1419.58 2932.67 1420.14 2934 1420.72 2892.75 1445.35 2852.15 1468.05 2812.15 1489 2811.1 1488.21 2810.05 1487.42 2809 1486.66 2848.68 1465.92 2888.97 1443.42 2929.94 1419L2929.99 1419Z" fill="#606060" fill-rule="evenodd"/><path d="M3426 1062C3264.34 1202.03 3112.88 1312.47 2969.45 1400 2967.97 1399.52 2966.47 1399.04 2965 1398.56 3107.72 1311.79 3258.36 1202.23 3419.1 1063.37L3426 1062Z" fill="#606060" fill-rule="evenodd"/><path d="M2965.97 1435C2967.31 1435.57 2968.63 1436.15 2970 1436.76 2925.31 1462.59 2881.36 1486.26 2838.11 1508 2837.08 1507.16 2836.03 1506.35 2835 1505.6 2877.95 1484.06 2921.59 1460.63 2965.97 1435" fill="#606060" fill-rule="evenodd"/><path d="M3473 1066 3471.91 1071.5 3471.91 1071.53C3307.89 1213.07 3154.09 1324.64 3008.4 1413 3006.93 1412.52 3005.46 1412.01 3004 1411.53 3151.33 1322.46 3306.94 1209.58 3473 1066" fill="#606060" fill-rule="evenodd"/><path d="M3001.15 1450C3002.44 1450.62 3003.71 1451.21 3005 1451.83 2960.72 1477.72 2916.48 1501.86 2872.17 1524.34 2869.11 1525.9 2866.03 1527.45 2862.95 1529 2861.99 1528.14 2861 1527.34 2860 1526.55 2863.53 1524.79 2867.08 1523 2870.61 1521.21 2914.13 1499.1 2957.61 1475.38 3001.15 1450" fill="#606060" fill-rule="evenodd"/><path d="M3462 1124 3460.94 1129.37C3320.77 1246.06 3183.72 1344.66 3047.27 1427 3045.84 1426.49 3044.4 1425.97 3043 1425.49 3181.19 1342.33 3319.98 1242.47 3462 1124" fill="#606060" fill-rule="evenodd"/><path d="M3035.24 1467C3036.47 1467.61 3037.74 1468.22 3039 1468.8 2991.17 1496.09 2943.36 1521.41 2895.48 1544.83 2892.61 1546.22 2889.74 1547.64 2886.87 1549 2885.92 1548.19 2884.97 1547.34 2884 1546.56 2887.32 1545 2890.63 1543.37 2893.95 1541.74 2941.07 1518.66 2988.12 1493.78 3035.21 1467L3035.24 1467Z" fill="#606060" fill-rule="evenodd"/><path d="M3451 1180 3449.97 1185.27 3449.97 1185.3C3326.78 1283.87 3205.76 1368.72 3085.17 1441 3083.8 1440.45 3082.4 1439.94 3081 1439.43 3203.26 1366.33 3326 1280.24 3451 1180" fill="#606060" fill-rule="evenodd"/><path d="M3069.24 1483C3070.51 1483.61 3071.78 1484.26 3073 1484.91 3021.61 1514.05 2970.23 1540.96 2918.79 1565.73 2915.82 1567.16 2912.79 1568.6 2909.82 1570 2908.9 1569.11 2907.93 1568.26 2907 1567.44 2910.43 1565.83 2913.82 1564.19 2917.25 1562.55 2967.98 1538.13 3018.59 1511.66 3069.24 1483" fill="#606060" fill-rule="evenodd"/><path d="M3440 1234 3438.97 1239.24C3332.65 1321.39 3227.72 1393.4 3123.13 1456 3121.77 1455.45 3120.37 1454.9 3119 1454.36 3225.3 1390.9 3331.89 1317.72 3440 1234" fill="#606060" fill-rule="evenodd"/><path d="M3102.31 1500C3103.53 1500.62 3104.77 1501.27 3106 1501.93 3051.61 1532.82 2997.3 1561.21 2942.85 1587.18 2939.47 1588.8 2936.05 1590.42 2932.66 1592 2931.77 1591.07 2930.89 1590.18 2930 1589.35 2933.79 1587.56 2937.58 1585.77 2941.35 1583.98 2995.04 1558.39 3048.65 1530.41 3102.31 1500" fill="#606060" fill-rule="evenodd"/><path d="M3430 1286 3429 1291.07 3429 1291.1C3338.66 1358.14 3249.22 1417.94 3160 1471 3158.66 1470.45 3157.34 1469.87 3156 1469.36 3246.84 1415.41 3337.94 1354.44 3430 1286" fill="#606060" fill-rule="evenodd"/><path d="M3135.37 1518C3136.58 1518.65 3137.77 1519.29 3139 1519.97 3081.66 1551.78 3024.36 1580.88 2966.93 1607.4 2962.83 1609.3 2958.72 1611.17 2954.63 1613 2953.77 1612.12 2952.89 1611.24 2952 1610.35 2956.48 1608.35 2960.95 1606.31 2965.43 1604.24 3022.14 1578.06 3078.72 1549.37 3135.37 1518" fill="#606060" fill-rule="evenodd"/><path d="M3420 1336 3419.02 1341.06C3344.25 1394.15 3270.05 1442.38 3195.98 1486 3194.64 1485.42 3193.34 1484.84 3192 1484.26 3267.68 1439.75 3343.53 1390.42 3420 1336" fill="#606060" fill-rule="evenodd"/><path d="M3167.36 1535C3168.57 1535.65 3169.81 1536.34 3171 1537.05 3110.65 1570.33 3050.35 1600.63 2989.93 1628.08 2984.79 1630.41 2979.67 1632.74 2974.54 1635 2973.75 1634.08 2972.9 1633.15 2972 1632.26 2977.49 1629.83 2982.97 1627.36 2988.47 1624.87 3048.16 1597.75 3107.77 1567.83 3167.36 1535" fill="#606060" fill-rule="evenodd"/><path d="M3411 1385 3410 1389.96 3410 1390C3350.45 1430.29 3291.16 1467.59 3231.98 1502 3230.64 1501.39 3229.34 1500.78 3228 1500.2 3288.83 1464.87 3349.77 1426.55 3411 1385" fill="#606060" fill-rule="evenodd"/><path d="M3198.41 1554C3199.6 1554.68 3200.79 1555.39 3202 1556.1 3139.27 1590.04 3076.56 1620.86 3013.65 1648.63 3007.25 1651.44 3000.89 1654.25 2994.5 1657 2993.64 1656.05 2992.82 1655.1 2992 1654.19 2998.73 1651.31 3005.48 1648.36 3012.22 1645.38 3074.37 1617.95 3136.36 1587.53 3198.41 1554" fill="#606060" fill-rule="evenodd"/><path d="M3401 1432 3400.03 1436.9C3355.57 1465.91 3311.19 1493.26 3266.89 1519 3265.6 1518.35 3264.29 1517.71 3263 1517.13 3308.91 1490.53 3354.89 1462.17 3401 1432" fill="#606060" fill-rule="evenodd"/><path d="M3229.44 1572C3230.63 1572.72 3231.84 1573.44 3233 1574.19 3167.8 1609.38 3102.67 1641.18 3037.34 1669.71 3029.36 1673.2 3021.37 1676.61 3013.37 1680 3012.61 1679.04 3011.83 1678.09 3011 1677.13 3019.33 1673.6 3027.62 1670.05 3035.91 1666.42 3100.55 1638.21 3164.96 1606.78 3229.44 1572" fill="#606060" fill-rule="evenodd"/><path d="M3389 1479C3388.49 1480.74 3387.94 1482.45 3387.47 1484.19 3358.57 1502.13 3329.7 1519.39 3300.88 1536 3299.56 1535.32 3298.3 1534.67 3297 1534.05 3327.64 1516.49 3358.28 1498.14 3389 1479" fill="#606060" fill-rule="evenodd"/><path d="M3259.5 1591C3260.66 1591.72 3261.82 1592.47 3263 1593.23 3195.65 1629.22 3128.37 1661.62 3060.84 1690.6 3051.01 1694.81 3041.16 1698.96 3031.3 1703 3030.54 1702.01 3029.79 1701.01 3029 1700.05 3039.14 1695.88 3049.27 1691.59 3059.41 1687.28 3126.24 1658.65 3192.87 1626.59 3259.5 1591" fill="#606060" fill-rule="evenodd"/><path d="M3377 1525C3376.61 1526.57 3376.27 1528.13 3375.9 1529.7 3362.17 1537.63 3348.5 1545.4 3334.78 1553 3333.51 1552.33 3332.27 1551.67 3331 1551.07 3346.33 1542.57 3361.67 1533.87 3377 1525" fill="#606060" fill-rule="evenodd"/><path d="M3293 1612.3C3223.78 1649.02 3154.57 1681.93 3085.15 1711.21 3073.21 1716.25 3061.23 1721.16 3049.23 1726 3048.53 1724.97 3047.79 1723.98 3047 1722.94 3059.25 1718.04 3071.49 1712.99 3083.75 1707.84 3152.49 1678.85 3221.04 1646.28 3289.59 1610 3290.71 1610.76 3291.88 1611.51 3293 1612.3" fill="#606060" fill-rule="evenodd"/><path d="M3322 1632.36C3250.85 1669.36 3179.69 1702.43 3108.31 1731.78 3093.94 1737.66 3079.59 1743.4 3065.16 1749 3064.48 1747.98 3063.76 1746.95 3063 1745.92 3077.67 1740.25 3092.3 1734.41 3106.91 1728.43 3177.65 1699.36 3248.11 1666.63 3318.57 1630 3319.7 1630.79 3320.87 1631.57 3322 1632.36" fill="#606060" fill-rule="evenodd"/><path d="M3350 1652.39C3277.45 1689.62 3204.91 1722.84 3132.05 1752.17 3115.1 1759.02 3098.11 1765.63 3081.05 1772 3080.4 1770.98 3079.71 1769.92 3079 1768.9 3096.26 1762.43 3113.49 1755.72 3130.7 1748.8 3202.89 1719.74 3274.75 1686.83 3346.64 1650 3347.77 1650.82 3348.87 1651.6 3350 1652.39" fill="#606060" fill-rule="evenodd"/><path d="M3094 1791.87C3094.68 1792.89 3095.32 1793.94 3095.98 1795 3115.93 1787.78 3135.81 1780.21 3155.64 1772.37 3220.95 1746.57 3286.04 1717.63 3351.11 1685.53L3352 1681C3286.22 1713.55 3220.37 1742.85 3154.28 1768.96 3134.25 1776.9 3114.16 1784.5 3094 1791.87" fill="#606060" fill-rule="evenodd"/><path d="M3109 1815.78C3109.73 1816.84 3110.37 1817.94 3110.95 1819 3134.01 1810.82 3157.01 1802.26 3179.92 1793.32 3234.82 1771.89 3289.54 1748.33 3344.15 1722.49L3345 1718C3289.64 1744.26 3234.21 1768.19 3178.6 1789.87 3155.48 1798.9 3132.27 1807.53 3109 1815.78" fill="#606060" fill-rule="evenodd"/><path d="M3122 1838.74C3122.69 1839.82 3123.3 1840.91 3123.91 1842 3150.47 1832.99 3176.89 1823.54 3203.2 1813.54 3247.94 1796.57 3292.55 1778.24 3337.11 1758.42L3338 1754C3292.73 1774.16 3247.38 1792.87 3201.88 1810.1 3175.37 1820.14 3148.75 1829.69 3122 1838.74" fill="#606060" fill-rule="evenodd"/><path d="M3136 1862.69C3136.62 1863.79 3137.2 1864.9 3137.78 1866 3167.78 1855.99 3197.69 1845.32 3227.43 1834.03 3261.73 1820.98 3295.99 1807.13 3330.16 1792.39L3331 1788C3296.09 1803.02 3261.15 1817.21 3226.12 1830.5 3196.24 1841.83 3166.18 1852.57 3136 1862.69" fill="#606060" fill-rule="evenodd"/><path d="M3150 1885.15C3151.09 1886.08 3152.21 1887.04 3153.34 1888 3184.11 1878.02 3220.94 1865.75 3251.42 1854.53 3275.69 1845.57 3299.93 1836.17 3324.14 1826.39L3325 1822C3300.08 1832.12 3275.11 1841.8 3250.13 1850.99 3218.97 1862.49 3181.43 1875 3150 1885.15" fill="#606060" fill-rule="evenodd"/><path d="M3161 1909.13C3162.13 1910.09 3163.21 1911.04 3164.33 1912 3195.16 1902.24 3244.14 1886.11 3274.71 1875.09 3288.87 1869.97 3303.02 1864.72 3317.14 1859.33L3318 1855C3303.15 1860.7 3288.32 1866.22 3273.45 1871.58 3242.2 1882.87 3192.56 1899.17 3161 1909.13" fill="#606060" fill-rule="evenodd"/><path d="M3178 1931.1C3179.1 1932.05 3180.19 1933.01 3181.27 1934 3212.37 1924.33 3267.77 1905.8 3298.58 1894.82 3302.75 1893.35 3306.97 1891.85 3311.16 1890.31L3312 1886C3307.1 1887.78 3302.22 1889.52 3297.32 1891.27 3265.88 1902.45 3209.78 1921.21 3178 1931.1" fill="#606060" fill-rule="evenodd"/><path d="M3187.26 1959C3213.05 1951.23 3279.68 1929.86 3305.19 1921.24L3306 1917C3279.08 1926.13 3211.14 1947.94 3184 1956.08 3185.08 1957.07 3186.18 1958.05 3187.26 1959" fill="#606060" fill-rule="evenodd"/><path d="M3197.34 1983C3213.62 1978.13 3282.85 1956.57 3299.14 1951.32L3300 1947C3282.38 1952.69 3211.76 1974.7 3194 1979.98 3195.13 1980.98 3196.25 1982.01 3197.34 1983" fill="#606060" fill-rule="evenodd"/><path d="M3221.51 2001.05C3222.35 2000.8 3223.95 2000.34 3226.09 1999.73 3226.94 1999.5 3227.8 1999.28 3228.65 1999.05 3228.63 1999.04 3228.62 1999.02 3228.6 1999.01 3246.25 1993.97 3288.26 1982.05 3294.18 1980.27L3295 1976C3287.77 1978.21 3242.81 1990.97 3224.75 1996.14 3216.85 1998.29 3208.9 2000.37 3201 2002.42 3201.48 2003.63 3201.95 2004.8 3202.4 2006 3208.75 2004.38 3215.08 2002.67 3221.42 2000.97 3221.45 2000.99 3221.48 2001.02 3221.51 2001.05" fill="#606060" fill-rule="evenodd"/><path d="M3210 2025.31C3210.45 2026.53 3210.89 2027.74 3211.32 2029 3225.22 2025.52 3282.14 2010.75 3296 2007.03 3294.78 2005.98 3293.51 2005.01 3292.29 2004 3279.25 2007.51 3223.1 2022.07 3210 2025.31" fill="#606060" fill-rule="evenodd"/><path d="M3219.3 2052C3238.49 2047.43 3266.86 2040.72 3285.99 2035.63 3287.66 2032.73 3286.93 2033.41 3288 2031 3269.71 2035.85 3236.4 2043.85 3218 2048.24 3218.43 2049.51 3218.88 2050.74 3219.3 2052" fill="#606060" fill-rule="evenodd"/><path d="M3227.22 2075C3243.92 2071.27 3260.59 2067.31 3277.19 2063.21L3278 2059C3260.73 2063.31 3243.38 2067.41 3226 2071.31 3226.44 2072.54 3226.84 2073.77 3227.22 2075" fill="#606060" fill-rule="evenodd"/><path d="M3234.19 2097C3246.89 2094.45 3259.56 2091.77 3272.19 2089.02L3273 2085C3259.69 2087.94 3246.37 2090.76 3233 2093.44 3233.43 2094.61 3233.82 2095.82 3234.19 2097" fill="#606060" fill-rule="evenodd"/><path d="M3241.15 2120C3249.84 2118.18 3258.54 2116.32 3267.19 2114.39L3268 2110C3258.71 2112.11 3249.37 2114.11 3240 2116.04 3240.41 2117.36 3240.78 2118.68 3241.15 2120" fill="#606060" fill-rule="evenodd"/><path d="M3247.98 2141.76C3248.07 2141.86 3248.14 2141.93 3248.24 2142 3252.78 2141.1 3257.37 2140.17 3261.92 2139.24 3262.24 2138.55 3262.47 2137.79 3262.64 2137L3263 2135 3247 2138.21C3247.33 2139.38 3247.66 2140.55 3247.98 2141.76" fill="#606060" fill-rule="evenodd"/></g></svg>